<?xml version="1.0" encoding="UTF-8"?>
<!DOCTYPE svg PUBLIC "-//W3C//DTD SVG 1.1//EN" "http://www.w3.org/Graphics/SVG/1.1/DTD/svg11.dtd">
<!-- Creator: CorelDRAW 2021 (64-Bit) -->
<svg xmlns="http://www.w3.org/2000/svg" xml:space="preserve" width="26px" height="26px" version="1.1" style="shape-rendering:geometricPrecision; text-rendering:geometricPrecision; image-rendering:optimizeQuality; fill-rule:evenodd; clip-rule:evenodd"
viewBox="0 0 26 26"
 xmlns:xlink="http://www.w3.org/1999/xlink"
 xmlns:xodm="http://www.corel.com/coreldraw/odm/2003">
 <defs>
  <style type="text/css">
   <![CDATA[
    .str0 {stroke:#FEFEFE;stroke-width:0.5;stroke-miterlimit:2.61313}
    .fil0 {fill:none}
    .fil3 {fill:#FEFEFE}
    .fil1 {fill:#C0333D}
    .fil2 {fill:#2F2B60}
    .fil4 {fill:#FEFEFE;fill-rule:nonzero}
    .fil5 {fill:#C0333D;fill-rule:nonzero}
   ]]>
  </style>
 </defs>
 <g id="Layer_x0020_1">
  <metadata id="CorelCorpID_0Corel-Layer"/>
  <rect class="fil0" width="26" height="26"/>
  <g id="_2373138200192">
   <path class="fil1" d="M11.93 4.12l6.72 0 0 7.57c-2.04,0.63 -3.53,2.5 -3.53,4.69 0,2.2 1.49,4.07 3.53,4.69l0 0.81 -7.46 0 0 -16.74c0,-0.56 0.33,-1.02 0.74,-1.02z"/>
   <path class="fil2" d="M0.82 4.12l7.46 0 0 17.76 -6.72 0c-0.4,0 -0.74,-0.46 -0.74,-1.02l0 -16.74z"/>
   <path class="fil3" d="M9.76 4.97c2.03,0 3.69,1.62 3.69,3.6 0,1.98 -1.66,3.59 -3.69,3.59 -2.02,0 -3.68,-1.61 -3.68,-3.59 0,-1.98 1.66,-3.6 3.68,-3.6l0 0z"/>
   <path class="fil0 str0" d="M9.76 4.97c2.03,0 3.69,1.62 3.69,3.6 0,1.98 -1.66,3.59 -3.69,3.59 -2.02,0 -3.68,-1.61 -3.68,-3.59 0,-1.98 1.66,-3.6 3.68,-3.6l0 0z"/>
   <path class="fil2" d="M9.67 5.51c1.66,0 3.02,1.33 3.02,2.96 0,1.62 -1.36,2.95 -3.02,2.95 -1.67,0 -3.02,-1.33 -3.02,-2.95 0,-1.63 1.35,-2.96 3.02,-2.96l0 0z"/>
   <path class="fil4" d="M20.15 11.47c2.77,0 5.03,2.21 5.03,4.91 0,2.71 -2.26,4.92 -5.03,4.92 -2.77,0 -5.03,-2.21 -5.03,-4.92 0,-2.7 2.26,-4.91 5.03,-4.91l0 0z"/>
   <path class="fil5" d="M20.36 12.77c2.08,0 3.77,1.66 3.77,3.69 0,2.03 -1.69,3.69 -3.77,3.69 -2.08,0 -3.78,-1.66 -3.78,-3.69 0,-2.03 1.7,-3.69 3.78,-3.69l0 0z"/>
  </g>
 </g>
</svg>
